<?xml version="1.0" encoding="UTF-8" standalone="no"?>
<!-- Created with Inkscape (http://www.inkscape.org/) -->

<svg
   width="99.635223mm"
   height="59.519066mm"
   viewBox="0 0 99.635223 59.519064"
   version="1.1"
   id="svg1"
   xml:space="preserve"
   inkscape:version="1.4.2 (ebf0e940d0, 2025-05-08)"
   sodipodi:docname="alt_logo.svg"
   xmlns:inkscape="http://www.inkscape.org/namespaces/inkscape"
   xmlns:sodipodi="http://sodipodi.sourceforge.net/DTD/sodipodi-0.dtd"
   xmlns="http://www.w3.org/2000/svg"
   xmlns:svg="http://www.w3.org/2000/svg"><sodipodi:namedview
     id="namedview1"
     pagecolor="#505050"
     bordercolor="#eeeeee"
     borderopacity="1"
     inkscape:showpageshadow="0"
     inkscape:pageopacity="0"
     inkscape:pagecheckerboard="0"
     inkscape:deskcolor="#505050"
     inkscape:document-units="mm"
     inkscape:zoom="2.7527878"
     inkscape:cx="225.04459"
     inkscape:cy="166.19516"
     inkscape:window-width="1920"
     inkscape:window-height="1080"
     inkscape:window-x="0"
     inkscape:window-y="0"
     inkscape:window-maximized="1"
     inkscape:current-layer="layer1" /><defs
     id="defs1" /><g
     inkscape:label="Layer 1"
     inkscape:groupmode="layer"
     id="layer1"
     transform="translate(-56.958109,-105.81972)"
     style="fill:#ffffff"><path
       style="fill:#ffffff"
       d="m 117.35992,151.11673 c -0.39064,-0.13352 -0.88806,-0.34133 -3.23572,-0.20783 -3.91377,0.22254 -7.85652,1.87179 -13.47354,5.63597 -4.53162,3.0368 -13.023864,-0.71352 -8.64955,-3.8198 0.525909,-0.37345 1.174472,-1.68995 1.097386,-2.22754 -0.183678,-1.28095 -3.35792,-0.4656 -4.981802,1.27964 -0.898729,0.9659 -1.437229,1.13104 -4.281247,1.31297 -7.643051,0.4889 -11.422842,-6.20394 -9.638737,-17.06724 0.785837,-4.78491 -0.737019,-13.74579 -2.184045,-12.85148 -2.685234,1.65957 -3.584122,18.35478 -1.172421,21.77559 1.586327,2.25009 1.747488,2.72906 1.576126,4.68433 -0.285033,3.25226 -1.327849,5.39365 -2.816141,5.78285 -1.029393,0.26919 -0.785517,-0.62787 0.360935,-1.32764 0.870077,-0.53108 1.983108,-5.25008 1.525083,-6.46601 -0.09135,-0.24249 -0.466556,-0.77828 -0.833803,-1.19062 -0.542378,-0.60899 -1.094427,-1.86366 -1.464932,-3.32942 -0.02759,-0.10914 -0.07496,-0.2282 -0.105281,-0.26458 -0.03032,-0.0364 -0.08691,-0.30427 -0.125772,-0.59531 -0.03886,-0.29104 -0.222771,-1.44512 -0.408697,-2.56463 -0.423429,-2.54956 -0.246211,-7.54045 0.331706,-9.34162 0.759649,-2.36757 1.250072,-4.26809 1.250072,-4.84436 0,-1.07033 1.25264,-3.49002 1.806736,-3.49002 2.836933,0 4.323745,7.89317 2.95229,15.67307 -1.435672,8.14418 2.584737,14.91617 8.529171,14.36656 2.443363,-0.22591 3.577409,-0.57911 3.92106,-1.22123 0.149524,-0.27939 0.408827,-0.50798 0.576229,-0.50798 0.167402,0 0.550166,-0.22671 0.850587,-0.5038 0.654187,-0.6034 2.394406,-1.11663 3.013352,-0.88871 2.393977,0.88153 2.959097,2.08085 1.633909,3.46753 -3.473195,3.63436 2.513398,6.0292 7.198406,2.87959 1.23948,-0.83326 2.33854,-1.51503 2.44237,-1.51503 0.10383,0 0.98345,-0.4622 1.95473,-1.02713 5.4584,-3.17477 13.13463,-3.02342 15.73473,-1.26382 4.78696,1.0049 5.09698,0.88162 7.60463,0.0599 1.42417,-0.46669 3.32461,-0.58053 3.03274,-3.93266 -0.27026,-3.10391 -1.59424,-2.82504 -3.09223,-5.74082 -0.64391,-1.25336 -1.44199,-5.00619 -1.69271,-6.78977 -1.04331,-7.42202 -1.02856,-12.61385 1.7854,-12.8897 3.90948,-0.38324 9.97107,2.07544 13.17602,0.1236 3.98022,-2.42399 -1.00847,-5.6354 -1.5991,-5.8848 -5.42987,-2.82638 -10.32498,-1.8762 -16.2242,-3.02283 -1.16904,-0.22722 -7.39809,-0.7595 -13.55199,1.49202 -1.76458,0.6456 -3.88729,1.28992 -6.02222,6.19238 -0.4497,0.7817 -1.61757,9.08861 6.059,4.84898 0.69415,-0.38337 8.53216,-4.02597 10.75039,-3.72682 0.93777,0.97133 2.30334,7.04862 2.34456,7.28365 0.77498,4.41823 2.72534,14.80248 1.41415,15.958 -0.86244,0.76004 -1.89928,1.99837 -4.88589,2.21548 -0.60295,0.0438 -2.65017,-0.41548 -0.38946,-0.81221 0.9797,-0.17193 2.51333,-2.57664 1.83054,-3.80866 -2.11556,-3.81729 -10.08211,-3.21059 -13.01291,-1.4456 -0.37846,0.22792 -0.97895,0.25112 -3.43848,1.60748 -0.63206,0.34856 -1.70635,1.2308 -2.3873,1.96053 -5.432742,5.82188 -9.439872,3.79896 -7.329787,-3.7003 0.204728,-0.72761 0.629939,-2.21589 0.944913,-3.30729 0.804161,-2.78647 1.206107,-5.32043 1.720734,-10.84792 0.06097,-0.65484 0.226281,-1.96453 0.367361,-2.91042 0.141081,-0.94588 0.39158,-2.67229 0.556665,-3.83646 0.165084,-1.16416 0.500636,-3.00963 0.745671,-4.10104 1.178033,-5.24706 0.577033,-7.14516 -2.857619,-9.02498 -4.244285,-2.32295 -8.869296,3.07489 -8.866362,10.3479 0.0019,4.61103 0.298366,5.64666 2.813026,9.82531 3.153899,5.24087 3.22868,5.41071 3.251253,7.384 0.02931,2.56254 -1.007852,3.75937 -2.711661,3.12909 -0.460452,-0.17033 -0.0082,-1.49664 -0.168068,-2.12175 -1.585748,-6.19954 -2.30352,-7.13821 -5.960191,-10.26995 -1.309833,-1.12179 -6.350183,-5.52646 -8.303313,-6.31598 -5.994834,-3.82741 -9.233208,2.17785 -12.500949,10.01095 -0.360678,0.94588 -1.43819,3.14854 -2.394471,4.89479 -3.608592,6.58958 -2.054135,5.62812 -3.586604,9.12808 -0.774632,1.76903 -0.396436,7.51698 0.567196,8.62044 2.816035,3.22466 6.540899,4.6014 8.967059,3.31431 0.293234,-0.15556 0.552451,-0.12181 0.756062,0.0985 0.340858,0.36872 -0.06065,0.63991 -1.738384,1.17416 -4.530339,1.44262 -10.396243,-3.73505 -9.675634,-8.54041 -0.411801,-5.67825 0.70229,-8.48609 3.554036,-13.66278 1.939559,-3.39163 2.38542,-4.28499 2.762774,-5.5357 0.984537,-3.26316 4.226706,-7.89348 6.793983,-10.95357 1.117587,-1.33212 4.928307,-0.71005 7.583778,1.21526 0.691638,0.50147 1.912368,1.35963 2.712732,1.90703 0.800365,0.5474 1.738058,1.188 2.118475,1.48175 2.827797,2.18356 3.807835,2.41622 6.26354,5.57954 1.118775,1.44115 2.047514,4.18999 2.882523,7.44091 0.517615,2.01522 0.84091,2.00862 1.081415,-0.0221 0.132325,-1.08877 -0.989772,-4.18853 -1.714211,-5.24064 -3.392521,-4.69676 -4.326552,-7.25161 -4.2948,-11.74751 0.07345,-10.39968 6.078836,-15.80997 12.124034,-10.92262 2.273294,1.83788 2.578834,3.59645 1.575974,9.07054 -0.46879,2.55883 -1.447154,9.06534 -1.631176,10.84791 -0.680789,6.59464 -1.459904,9.25549 -2.731168,13.2016 -2.569299,7.97534 0.542619,8.97246 6.026354,3.56477 3.72322,-3.67158 10.69506,-5.43511 15.27011,-4.43906 4.57504,0.99606 5.60034,4.04677 2.86458,6.81173 -0.5419,0.54768 -0.25254,0.28477 0.55552,0.0898 1.57244,-0.37929 3.17637,-2.02059 3.06526,-5.34843 -0.11111,-3.32784 -0.98217,-14.95942 -3.42217,-17.86133 -1.51939,-1.80702 -10.13583,4.78051 -12.57324,4.58429 -3.01541,-0.24275 -3.88714,-0.38098 -4.63798,-3.02978 -0.34449,-1.21527 -0.21,-2.50947 -0.0425,-3.2852 1.27728,-5.91527 6.36192,-8.77709 15.82863,-9.32655 5.36109,0.5005 14.17237,0.45854 16.4179,1.19634 0.62097,0.20403 1.30032,0.21336 1.44198,0.35502 0.14166,0.14166 0.47133,0.16706 0.69316,0.25757 2.10105,0.85724 4.3171,2.17617 5.24396,3.6231 0.77768,1.21404 1.42956,5.42487 -3.1884,5.36108 -3.3389,-0.0461 -7.42355,-0.72154 -10.93295,-0.38433 -3.87433,0.37227 -0.99843,16.46377 0.17016,18.00738 2.96664,3.9187 4.399,7.91115 1.70946,10.29809 -4.57525,1.38622 -5.21563,1.80687 -9.2858,1.24039 z m -23.57338,14.0724 c -0.461126,-0.31146 -0.644855,-1.45512 -0.300435,-1.87012 0.173618,-0.2092 0.317463,-0.57258 0.319656,-0.80752 0.0053,-0.56927 1.020235,-0.69149 1.449275,-0.17453 0.961846,1.15895 -0.312095,3.63325 -1.468496,2.85217 z m -11.922113,-4.55824 c -0.683741,-0.27587 -0.886822,-0.57435 -1.039279,-1.52749 -0.115684,-0.72324 -0.115684,-0.72324 0.437255,0.004 0.304117,0.40018 0.634995,0.30256 0.760023,0.30256 0.310337,0 0.08514,-0.74166 -0.248598,-0.8529 -0.606697,-0.20224 -0.225689,-1.06271 0.655763,-1.48099 2.387591,-1.13299 3.583506,2.18457 1.22681,3.40327 -0.8988,0.46479 -0.994674,0.47287 -1.791974,0.15118 z m 66.449483,-5.76232 c -0.29104,-0.0632 -0.73752,-0.29967 -0.99219,-0.52548 -0.25466,-0.22581 -0.46302,-0.30877 -0.46302,-0.18435 0,0.12442 -0.14287,0.0833 -0.3175,-0.0913 -0.17462,-0.17462 -0.46628,-0.3175 -0.64812,-0.3175 -0.18184,0 -0.90216,-0.42351 -1.60073,-0.94114 -1.09189,-0.80908 -1.51323,-0.95497 -3.0028,-1.03974 -4.9526,-0.28185 -4.79551,-5.02625 0.16954,-5.12063 2.36669,-0.045 2.27774,0.012 2.881,-1.84681 2.39698,-7.38582 12.84041,-4.08002 12.22732,3.87048 -0.36935,4.78959 -3.59163,7.20878 -8.2535,6.19646 z m 4.47412,-12.42437 c -3.79961,-2.68706 -6.60996,-0.22586 -6.61861,0.93947 -9.9e-4,0.13406 -0.0326,1.14484 -0.2681,1.40508 -0.2593,0.28653 -0.42213,0.91345 -0.4128,1.58935 0.0209,1.51188 -0.72994,0.60561 -1.53721,0.45129 -0.69401,0.49438 -1.79759,0.61826 -2.12476,0.63529 -2.35421,0.12256 -3.00319,0.56356 -3.39569,1.425 -0.39419,0.86515 2.3895,2.21129 2.68298,2.26766 2.11025,0.40534 3.08314,-0.30444 4.45923,0.79718 5.2774,4.22479 7.66521,2.23673 8.28348,1.05258 2.48216,-4.75395 3.28517,-8.95196 -1.06852,-10.5629 z"
       id="path1"
       inkscape:transform-center-x="-31.014737"
       inkscape:transform-center-y="-5.3473684"
       sodipodi:nodetypes="sssssscsssssssssssssssssssscsssccssssssssscccssssasssssssssscsssssssscsscssssssssssssssssssssscssssssssssssccssssssscssssccssssssssssssscscscscsssc" /></g></svg>
